<?xml version="1.0" standalone="no"?>
<!DOCTYPE svg PUBLIC "-//W3C//DTD SVG 20010904//EN"
 "http://www.w3.org/TR/2001/REC-SVG-20010904/DTD/svg10.dtd">
<svg version="1.0" xmlns="http://www.w3.org/2000/svg"
 width="1536.000000pt" height="864.000000pt" viewBox="0 0 1536.000000 864.000000"
 preserveAspectRatio="xMidYMid meet">

<g transform="translate(0.000000,864.000000) scale(0.100000,-0.100000)"
fill="#000000" stroke="none">
<path d="M735 8135 c-24 -23 -25 -30 -25 -145 l0 -120 -124 0 c-104 0 -125 -3
-130 -16 -3 -9 -6 -262 -6 -562 0 -616 -2 -596 75 -639 39 -22 45 -23 418 -23
414 0 409 -1 461 60 25 30 26 36 26 156 0 81 -4 123 -10 119 -6 -4 -10 -54
-10 -116 0 -122 -13 -163 -56 -179 -34 -13 -785 -13 -818 0 -14 5 -35 24 -46
42 -19 32 -20 51 -20 586 l0 552 120 0 120 0 0 -65 c0 -37 4 -65 10 -65 6 0
10 28 10 65 l0 65 225 0 225 0 0 -65 c0 -37 4 -65 10 -65 6 0 10 28 10 65 l0
65 105 0 105 0 0 -105 c0 -66 4 -105 10 -105 7 0 10 40 8 113 l-3 112 -112 3
-113 3 0 110 c0 114 -12 160 -45 173 -9 3 -102 6 -206 6 -188 0 -190 0 -214
-25z m419 -6 c25 -20 26 -23 26 -140 l0 -119 -222 2 -223 3 -3 113 c-3 108 -2
113 22 137 25 25 27 25 199 25 161 0 176 -2 201 -21z"/>
<path d="M5972 7838 c-7 -7 -12 -33 -12 -59 0 -38 5 -51 22 -63 28 -20 78 -21
103 -2 24 17 27 112 4 127 -21 13 -103 11 -117 -3z"/>
<path d="M2209 7794 c-12 -14 -14 -85 -17 -408 -2 -431 -1 -441 53 -441 47 0
55 29 55 198 l0 147 93 0 92 0 98 -162 c117 -195 119 -198 144 -198 22 0 53
29 53 49 0 7 -40 80 -89 162 l-90 148 35 10 c50 14 101 55 126 104 19 36 23
58 23 147 0 97 -2 109 -28 152 -18 31 -44 57 -75 75 -47 28 -49 28 -253 31
-185 3 -207 2 -220 -14z m417 -99 c44 -18 64 -64 63 -142 -1 -144 -30 -163
-241 -163 l-148 0 0 160 0 160 145 0 c105 0 155 -4 181 -15z"/>
<path d="M4392 7724 c-18 -13 -22 -25 -22 -73 l0 -58 -51 -5 c-51 -5 -69 -18
-69 -50 0 -29 29 -48 76 -48 l44 0 0 -180 c0 -202 10 -252 63 -308 34 -35 106
-62 169 -62 29 0 41 6 54 25 15 23 15 27 1 49 -13 19 -27 24 -72 28 -44 4 -62
11 -83 32 l-27 26 -3 195 -4 195 89 0 c97 0 113 7 113 52 0 38 -24 48 -119 48
l-81 0 0 59 c0 51 -3 62 -22 75 -12 9 -25 16 -28 16 -3 0 -16 -7 -28 -16z"/>
<path d="M760 7597 c0 -29 -5 -35 -36 -46 -31 -11 -38 -11 -55 5 -19 17 -21
17 -52 -14 l-32 -32 22 -21 c20 -20 20 -23 4 -60 -13 -32 -21 -39 -43 -39 -26
0 -28 -3 -28 -45 0 -43 1 -45 28 -45 22 0 32 -7 45 -34 15 -33 15 -36 -3 -59
-19 -24 -19 -24 8 -51 33 -30 41 -32 57 -10 10 15 16 15 48 3 32 -11 37 -17
37 -46 0 -33 0 -33 50 -33 49 0 50 1 50 30 0 25 6 32 37 45 34 14 38 14 58 -5
l21 -20 31 33 c31 32 31 32 13 54 -15 19 -16 28 -7 58 9 31 14 35 44 35 32 0
33 1 33 44 0 43 -1 45 -32 48 -26 2 -33 9 -44 40 -11 33 -11 40 5 59 18 22 17
23 -11 51 -34 33 -32 33 -53 12 -14 -15 -21 -15 -56 -4 -35 12 -39 17 -39 47
l0 33 -50 0 c-50 0 -50 0 -50 -33z m80 -22 c0 -19 9 -28 47 -45 43 -19 48 -19
71 -4 22 15 26 15 41 -1 15 -15 14 -18 -7 -35 l-23 -19 21 -33 c11 -18 20 -41
20 -50 0 -13 8 -18 31 -18 26 0 30 -3 27 -22 -2 -16 -11 -24 -28 -26 -19 -2
-30 -15 -46 -51 -22 -48 -22 -49 -2 -65 19 -17 19 -18 2 -37 -18 -19 -18 -19
-37 0 -19 19 -20 19 -68 -1 -38 -16 -49 -26 -51 -47 -4 -36 -42 -37 -46 -1 -2
19 -13 29 -45 43 -47 19 -77 22 -77 7 0 -15 -37 -12 -43 4 -3 7 1 23 10 35 10
15 12 26 5 34 -5 7 -13 27 -17 45 -6 27 -11 32 -36 32 -24 0 -29 4 -29 25 0
21 5 25 28 25 24 0 29 6 44 53 14 45 14 54 2 68 -15 17 -9 49 9 49 6 0 18 -7
27 -15 15 -13 22 -12 68 7 41 17 52 27 52 45 0 18 6 23 25 23 20 0 25 -5 25
-25z"/>
<path d="M760 7441 c-96 -51 -55 -201 55 -201 37 0 100 49 109 85 14 53 -53
135 -109 135 -11 0 -36 -8 -55 -19z m114 -27 c21 -20 30 -58 22 -89 -18 -70
-96 -88 -147 -34 -34 37 -36 62 -9 107 18 29 24 32 69 32 32 0 55 -6 65 -16z"/>
<path d="M3411 7579 c-132 -26 -180 -129 -167 -364 7 -140 34 -201 104 -242
43 -25 57 -28 178 -31 199 -6 274 24 309 124 17 49 5 74 -35 74 -24 0 -35 -8
-54 -39 -32 -51 -65 -61 -196 -61 -164 0 -190 16 -204 128 l-7 52 240 0 c292
0 276 -7 269 124 -10 187 -87 248 -312 245 -44 -1 -101 -5 -125 -10z m287
-108 c29 -15 52 -68 52 -116 l0 -35 -202 2 -203 3 3 40 c2 32 19 94 26 95 0 0
19 7 41 15 49 19 247 16 283 -4z"/>
<path d="M5178 7579 c-17 -9 -18 -35 -18 -312 0 -318 1 -327 45 -327 48 1 50
6 55 234 5 212 5 215 30 241 36 39 69 53 152 66 85 14 98 22 98 60 0 42 -27
52 -103 39 -68 -12 -137 -48 -162 -82 -15 -22 -15 -21 -15 19 0 32 -5 46 -22
57 -26 18 -36 19 -60 5z"/>
<path d="M6002 7574 c-22 -15 -22 -17 -22 -309 0 -317 1 -325 54 -325 45 0 46
7 46 321 0 257 -2 300 -16 313 -19 20 -34 20 -62 0z"/>
<path d="M6572 7579 c-12 -5 -25 -15 -28 -23 -5 -14 203 -539 232 -584 19 -28
37 -36 68 -28 20 5 43 50 150 290 69 156 126 295 126 308 0 30 -41 53 -69 39
-10 -6 -63 -111 -121 -241 -57 -126 -105 -228 -107 -226 -3 2 -46 104 -96 227
-95 230 -112 255 -155 238z"/>
<path d="M1370 7547 c0 -31 -48 -50 -75 -31 -17 12 -22 11 -47 -13 -25 -24
-26 -27 -10 -39 26 -19 5 -68 -31 -72 -25 -3 -27 -7 -27 -47 0 -40 2 -44 27
-47 36 -4 55 -55 28 -75 -18 -12 -17 -14 11 -42 26 -27 31 -28 46 -14 11 10
26 13 47 8 26 -5 31 -11 31 -36 0 -27 2 -29 40 -29 38 0 40 2 40 29 0 24 5 31
29 36 17 3 40 1 52 -5 18 -10 25 -8 47 14 25 25 26 26 7 40 -16 12 -17 17 -6
45 10 22 20 31 37 31 22 0 24 4 24 45 0 41 -2 45 -25 45 -34 0 -53 44 -31 69
14 15 13 20 -10 44 -23 25 -28 27 -47 14 -31 -19 -77 -1 -77 30 0 20 -5 23
-40 23 -35 0 -40 -3 -40 -23z m60 -16 c7 -29 86 -67 94 -45 3 8 12 14 20 14
19 0 28 -26 12 -39 -11 -9 -11 -19 3 -56 12 -35 21 -45 38 -45 16 0 23 -6 23
-20 0 -15 -7 -20 -25 -20 -20 0 -27 -6 -32 -30 -3 -17 -9 -33 -14 -36 -5 -3
-3 -13 3 -23 6 -10 8 -27 4 -37 -7 -18 -8 -18 -24 1 l-15 20 -43 -20 c-26 -12
-43 -27 -44 -37 0 -11 -8 -18 -20 -18 -12 0 -20 7 -20 18 0 11 -16 23 -42 34
-38 17 -43 17 -60 2 -16 -15 -18 -15 -24 -1 -3 9 -1 23 4 32 14 27 -11 89 -39
95 -33 8 -38 40 -6 40 19 0 27 9 40 41 12 29 13 47 7 60 -6 10 -10 22 -10 28
0 16 28 13 37 -4 7 -13 14 -12 51 6 25 13 42 28 42 38 0 38 31 39 40 2z"/>
<path d="M1341 7401 c-55 -77 11 -168 103 -143 42 11 71 68 56 108 -20 50 -39
64 -91 64 -41 0 -50 -4 -68 -29z m122 -13 c40 -47 5 -122 -55 -116 -45 4 -74
47 -62 90 17 57 78 71 117 26z"/>
<path d="M1060 7060 c0 -29 -37 -46 -58 -26 -15 13 -19 12 -38 -8 -17 -19 -18
-27 -8 -40 18 -25 6 -56 -22 -56 -21 0 -24 -5 -24 -40 0 -33 3 -40 20 -40 29
0 46 -37 26 -59 -15 -16 -14 -19 9 -41 20 -19 27 -21 39 -11 23 19 56 4 56
-25 0 -21 4 -24 40 -24 36 0 40 3 40 24 0 28 29 42 57 27 14 -7 25 -5 43 9 20
15 22 20 11 34 -21 25 -6 66 24 66 22 0 25 4 25 40 0 36 -2 40 -25 40 -30 0
-43 25 -27 51 10 15 7 23 -11 43 -21 23 -25 24 -39 10 -20 -20 -58 -3 -58 26
0 17 -7 20 -40 20 -33 0 -40 -3 -40 -20z m60 -20 c0 -11 8 -23 18 -26 9 -3 24
-9 33 -14 10 -5 21 -4 27 2 15 15 36 0 23 -16 -16 -19 8 -86 31 -86 10 0 18
-4 18 -10 0 -5 -8 -10 -18 -10 -23 0 -47 -78 -30 -98 16 -18 0 -28 -22 -14
-12 7 -21 8 -25 2 -3 -6 -17 -10 -30 -10 -17 0 -25 -6 -27 -22 -5 -32 -28 -35
-28 -4 0 20 -5 26 -22 26 -13 0 -29 4 -37 9 -9 6 -21 5 -32 -2 -23 -14 -36 -2
-20 17 9 11 10 20 2 35 -6 11 -11 29 -11 40 0 14 -6 21 -20 21 -11 0 -20 5
-20 10 0 6 8 10 18 10 20 0 46 69 31 85 -15 15 -10 25 11 25 11 0 20 -5 20
-11 0 -8 4 -8 13 -2 6 6 24 13 40 17 18 4 27 13 27 26 0 11 7 20 15 20 8 0 15
-9 15 -20z"/>
<path d="M1049 6941 c-44 -45 -36 -97 21 -126 32 -17 54 -12 88 18 31 28 29
74 -5 109 -34 36 -67 36 -104 -1z m93 -18 c50 -45 -11 -116 -73 -83 -22 12
-27 68 -7 88 17 17 58 15 80 -5z"/>
</g>
</svg>
